<svg width="115" height="102" viewBox="0 0 115 102" fill="none" xmlns="http://www.w3.org/2000/svg">
<path d="M71.3922 94.3617C51.0389 106.193 24.2129 98.0197 11.4697 76.1055C-1.27343 54.1912 4.89825 26.8326 25.2516 15.0014C45.6049 3.17027 95.7528 -2.21744 108.493 19.6996C121.236 41.6139 91.7424 82.5333 71.389 94.3645L71.3922 94.3617Z" fill="#54BBB7"/>
<path d="M78.2395 27.7419H84.0845C81.7465 31.2489 78.0725 37.2609 75.4005 41.7699C74.2315 44.1079 73.8975 45.2769 73.8975 46.6129C73.8975 47.9489 74.2315 48.9509 76.4025 49.7859C80.7445 51.4559 82.9155 54.6289 82.9155 58.971C82.9155 64.8159 78.4065 68.9909 72.8955 68.9909C66.2155 68.9909 61.5395 64.6489 61.5395 57.1339C61.5395 51.4559 63.3765 47.6149 68.5535 40.6009C71.7265 36.0919 75.0665 31.4159 78.2395 27.7419ZM48.6805 27.7419H54.5255C52.1875 31.2489 48.5135 37.2609 45.8415 41.7699C44.6725 44.1079 44.3385 45.2769 44.3385 46.6129C44.3385 47.9489 44.6725 48.9509 46.8435 49.7859C51.1855 51.4559 53.3565 54.6289 53.3565 58.971C53.3565 64.8159 48.8475 68.9909 43.3365 68.9909C36.6565 68.9909 31.9805 64.6489 31.9805 57.1339C31.9805 51.4559 33.8175 47.6149 38.9945 40.6009C42.1675 36.0919 45.5075 31.4159 48.6805 27.7419Z" fill="white" fill-opacity="0.9"/>
</svg>
